# xmcd
#
# Track frame offsets:
#	150
#	17844
#	39645
#	60800
#	83288
#	107232
#	122264
#	142028
#
# Disc length: 2092 seconds
# Revision: 0
# Processed by: cddbd v1.5.2PL0 Copyright (c) Steve Scherf et al.
# Submitted via: dBpowerAMP V12.0
#
DISCID=58082a08
DTITLE=Raised By Eagles - Diamonds In The Bloodstream
DYEAR=2014
DGENRE=Alt Country
TTITLE0=Falling Through
TTITLE1=Jackie
TTITLE2=Sugar Cane
TTITLE3=Honey
TTITLE4=Waterline
TTITLE5=Window Seat
TTITLE6=Doorstep
TTITLE7=Days Fall
EXTD=
EXTT0=
EXTT1=
EXTT2=
EXTT3=
EXTT4=
EXTT5=
EXTT6=
EXTT7=
PLAYORDER=
